<svg width="50" height="51" viewBox="0 0 50 51" fill="none" xmlns="http://www.w3.org/2000/svg">
<path fill-rule="evenodd" clip-rule="evenodd" d="M41.2528 11.9202C43.0407 12.4039 44.4551 13.8281 44.9354 15.6285C45.816 18.9069 45.8427 25.7055 45.8427 25.7055C45.8427 25.7055 45.8427 32.5309 44.9621 35.7824C44.4817 37.5828 43.0674 39.007 41.2795 39.4907C38.0506 40.3775 25.0549 40.3775 25.0549 40.3775C25.0549 40.3775 12.0592 40.3775 8.83027 39.4907C7.04235 39.007 5.62804 37.5828 5.1477 35.7824C4.26709 32.5041 4.26709 25.7055 4.26709 25.7055C4.26709 25.7055 4.26709 18.9069 5.12102 15.6554C5.60135 13.855 7.01567 12.4308 8.80358 11.9471C12.0325 11.0603 25.0282 11.0334 25.0282 11.0334C25.0282 11.0334 38.0239 11.0334 41.2528 11.9202ZM31.6728 25.7055L20.892 31.9935V19.4175L31.6728 25.7055Z" fill="white"/>
</svg>
