<svg width="52" height="52" viewBox="0 0 52 52" fill="none" xmlns="http://www.w3.org/2000/svg">
<path d="M26.0818 7.12891C15.3782 7.12891 6.66732 15.5189 6.66355 25.83C6.66103 29.1274 7.55677 32.3456 9.25516 35.18L6.5 44.8708L16.7947 42.2704C19.6584 43.7684 22.8425 44.5497 26.0742 44.5475H26.0818C36.7854 44.5475 45.4962 36.1562 45.5 25.8451C45.5025 20.8506 43.4846 16.1492 39.8173 12.6153C36.1513 9.08016 31.2763 7.13016 26.0818 7.12891ZM26.0818 41.3885H26.0755C23.1794 41.3885 20.3387 40.6387 17.8603 39.2221L17.269 38.885L11.1624 40.4274L12.7928 34.6906L12.4091 34.1031C10.7974 31.645 9.93946 28.7694 9.94081 25.83C9.94458 17.2588 17.186 10.2879 26.0881 10.2879C30.3982 10.2892 34.4504 11.9083 37.4987 14.8459C40.547 17.7835 42.224 21.6897 42.2215 25.8439C42.2177 34.4151 34.9775 41.3885 26.0805 41.3885H26.0818ZM34.9348 29.7451C34.4492 29.5124 32.0639 28.3814 31.6185 28.2241C31.1744 28.0694 30.8511 27.9889 30.5278 28.4569C30.2057 28.9249 29.2747 29.9779 28.9929 30.2886C28.7086 30.6006 28.4255 30.6384 27.9399 30.4056C27.4543 30.1716 25.8905 29.6785 24.0387 28.0857C22.5957 26.8478 21.6219 25.318 21.3389 24.8487C21.0558 24.382 21.3087 24.1291 21.5515 23.8964C21.7691 23.6888 22.0371 23.3516 22.2786 23.0786C22.5202 22.8056 22.6007 22.6106 22.7643 22.2986C22.9253 21.9879 22.8448 21.7136 22.7227 21.4809C22.6007 21.2456 21.632 18.9459 21.2256 18.0112C20.8331 17.1003 20.4331 17.2224 20.1349 17.2073C19.8518 17.1947 19.5298 17.1909 19.2039 17.1909C18.8831 17.1909 18.356 17.3079 17.9106 17.7759C17.4665 18.2439 16.2123 19.3736 16.2123 21.6734C16.2123 23.9744 17.9509 26.1961 18.1937 26.5081C18.4365 26.8189 21.6156 31.5404 26.4831 33.5659C27.6405 34.0452 28.5438 34.3333 29.2496 34.5497C30.412 34.9057 31.4701 34.8541 32.3054 34.7346C33.2364 34.6 35.1763 33.6049 35.5789 32.5141C35.984 31.4234 35.984 30.4874 35.8632 30.2924C35.745 30.0974 35.4204 29.9804 34.9348 29.7451Z" fill="white"/>
</svg>
