<svg width="48" height="48" viewBox="0 0 48 48" fill="none" xmlns="http://www.w3.org/2000/svg">
<path fill-rule="evenodd" clip-rule="evenodd" d="M23.5845 6.8042C18.7803 6.8042 18.1789 6.82416 16.2921 6.90985C14.4089 6.99554 13.1223 7.29372 11.9974 7.72923C10.8181 8.17062 9.74856 8.86322 8.86413 9.76008C7.96464 10.6395 7.26846 11.7035 6.82405 12.878C6.38892 13.9979 6.08821 15.2798 6.00213 17.1545C5.91722 19.0315 5.896 19.629 5.896 24.4127C5.896 29.1963 5.91604 29.7938 6.00213 31.6721C6.08821 33.5468 6.38774 34.8275 6.82523 35.9474C7.26863 37.1213 7.96437 38.186 8.86531 39.0665C9.74874 39.9619 10.8175 40.6549 11.9974 41.0973C13.1223 41.5317 14.4089 41.8298 16.2921 41.9155C18.1789 42.0012 18.7803 42.0212 23.5845 42.0212C28.3887 42.0212 28.9901 42.0012 30.8769 41.9155C32.7601 41.8298 34.0467 41.5317 35.1717 41.0961C36.3509 40.6548 37.4205 39.9622 38.3049 39.0653C39.2044 38.1859 39.9006 37.1219 40.345 35.9474C40.7813 34.8275 41.0808 33.5468 41.1669 31.6721C41.253 29.7938 41.273 29.1952 41.273 24.4127C41.273 19.6302 41.253 19.0315 41.1669 17.1533C41.0808 15.2786 40.7813 13.9979 40.3438 12.878C39.8997 11.703 39.2035 10.6385 38.3037 9.7589C37.4203 8.86348 36.3515 8.17045 35.1717 7.72806C34.0467 7.29489 32.759 6.99554 30.8757 6.90985C28.9901 6.82533 28.3899 6.8042 23.5845 6.8042ZM23.5845 9.97725C28.3074 9.97725 28.8675 9.99486 30.733 10.0794C32.4571 10.158 33.3934 10.4433 34.0172 10.6863C34.8427 11.0044 35.4323 11.3871 36.0514 12.0022C36.6705 12.6185 37.0537 13.2055 37.3733 14.0272C37.6162 14.6482 37.904 15.5803 37.983 17.2965C38.0679 19.1536 38.0856 19.7112 38.0856 24.4127C38.0856 29.1142 38.0679 29.6718 37.983 31.5289C37.904 33.2451 37.6174 34.1772 37.3733 34.7982C37.0902 35.563 36.6385 36.255 36.0514 36.8231C35.4807 37.4077 34.7856 37.8574 34.0172 38.1391C33.3934 38.3809 32.4571 38.6673 30.733 38.746C28.8675 38.8305 28.3085 38.8481 23.5845 38.8481C18.8605 38.8481 18.3015 38.8305 16.436 38.746C14.712 38.6673 13.7756 38.3821 13.1518 38.1391C12.3835 37.8573 11.6884 37.4076 11.1176 36.8231C10.5306 36.2549 10.0789 35.563 9.79573 34.7982C9.5528 34.1772 9.26507 33.2451 9.18606 31.5289C9.10116 29.6718 9.08347 29.1142 9.08347 24.4127C9.08347 19.7112 9.10116 19.1536 9.18606 17.2965C9.26507 15.5803 9.55162 14.6482 9.79573 14.0272C10.1153 13.2055 10.4997 12.6185 11.1176 12.0022C11.6883 11.4177 12.3835 10.968 13.1518 10.6863C13.7756 10.4445 14.712 10.158 16.436 10.0794C18.3015 9.99486 18.8617 9.97725 23.5845 9.97725Z" fill="white"/>
<path fill-rule="evenodd" clip-rule="evenodd" d="M23.5846 30.288C22.8095 30.288 22.042 30.136 21.326 29.8408C20.6099 29.5455 19.9592 29.1127 19.4112 28.5672C18.8631 28.0216 18.4284 27.3739 18.1318 26.661C17.8352 25.9482 17.6825 25.1842 17.6825 24.4126C17.6825 23.6411 17.8352 22.8771 18.1318 22.1642C18.4284 21.4514 18.8631 20.8037 19.4112 20.2581C19.9592 19.7126 20.6099 19.2798 21.326 18.9845C22.042 18.6893 22.8095 18.5373 23.5846 18.5373C25.1499 18.5373 26.6511 19.1563 27.758 20.2581C28.8648 21.36 29.4866 22.8544 29.4866 24.4126C29.4866 25.9709 28.8648 27.4653 27.758 28.5672C26.6511 29.669 25.1499 30.288 23.5846 30.288ZM23.5846 15.3619C21.1733 15.3619 18.8607 16.3154 17.1556 18.0128C15.4506 19.7101 14.4927 22.0122 14.4927 24.4126C14.4927 26.8131 15.4506 29.1152 17.1556 30.8125C18.8607 32.5098 21.1733 33.4634 23.5846 33.4634C25.9959 33.4634 28.3085 32.5098 30.0135 30.8125C31.7186 29.1152 32.6765 26.8131 32.6765 24.4126C32.6765 22.0122 31.7186 19.7101 30.0135 18.0128C28.3085 16.3154 25.9959 15.3619 23.5846 15.3619ZM35.3215 15.1975C35.3215 15.7649 35.0951 16.3091 34.692 16.7103C34.289 17.1116 33.7423 17.337 33.1723 17.337C32.6024 17.337 32.0557 17.1116 31.6527 16.7103C31.2496 16.3091 31.0232 15.7649 31.0232 15.1975C31.0232 14.6301 31.2496 14.086 31.6527 13.6847C32.0557 13.2835 32.6024 13.0581 33.1723 13.0581C33.7423 13.0581 34.289 13.2835 34.692 13.6847C35.0951 14.086 35.3215 14.6301 35.3215 15.1975Z" fill="white"/>
</svg>
