<svg width="26" height="26" viewBox="0 0 26 26" fill="none" xmlns="http://www.w3.org/2000/svg">
<path d="M3.78369 3.63672H5.88817L6.30906 5.72183M7.99265 14.0623H18.515L22.724 5.72183H6.30906M7.99265 14.0623L6.30906 5.72183M7.99265 14.0623L5.57998 16.4527C4.9171 17.1095 5.38658 18.2325 6.32402 18.2325H18.515M18.515 18.2325C17.3528 18.2325 16.4106 19.166 16.4106 20.3176C16.4106 21.4691 17.3528 22.4027 18.515 22.4027C19.6773 22.4027 20.6195 21.4691 20.6195 20.3176C20.6195 19.166 19.6773 18.2325 18.515 18.2325ZM10.0971 20.3176C10.0971 21.4691 9.15492 22.4027 7.99265 22.4027C6.83038 22.4027 5.88817 21.4691 5.88817 20.3176C5.88817 19.166 6.83038 18.2325 7.99265 18.2325C9.15492 18.2325 10.0971 19.166 10.0971 20.3176Z" stroke="#C57E5F" stroke-width="2" stroke-linecap="round" stroke-linejoin="round"/>
</svg>
